<svg width="748" height="748" viewBox="0 0 748 748" fill="none" xmlns="http://www.w3.org/2000/svg">
<g clip-path="url(#clip0_102_2)">
<path d="M719.28 747.667C712.884 747.667 706.478 745.214 701.608 740.302L10.3813 43.4088C0.699049 33.6588 0.766781 17.8982 10.5219 8.21551C20.2771 -1.46675 36.0433 -1.39902 45.7246 8.35614L736.951 705.25C746.633 715.005 746.566 730.76 736.8 740.443C731.957 745.261 725.619 747.667 719.28 747.667Z" fill="black"/>
<path d="M644.48 247.627C644.48 262.22 632.746 274.053 618.272 274.053C603.798 274.053 592.064 262.22 592.064 247.627C592.064 233.033 603.798 221.205 618.272 221.205C632.746 221.205 644.48 233.033 644.48 247.627Z" fill="black"/>
<path d="M615.4 642.933H94.6133C42.64 642.933 0.342651 600.387 0.342651 548.089V227.116C0.342651 174.824 42.64 132.272 94.6133 132.272H132.379C136.967 132.272 141.478 131.465 145.795 129.892C158.696 125.147 172.997 131.808 177.716 144.714C182.435 157.626 175.799 171.917 162.893 176.636C153.081 180.229 142.815 182.047 132.377 182.047H94.612C70.0813 182.052 50.1173 202.266 50.1173 227.115V548.089C50.1173 572.938 70.076 593.157 94.612 593.157H615.399C629.144 593.157 640.289 604.297 640.289 618.047C640.289 631.793 629.154 642.933 615.409 642.933L615.4 642.933Z" fill="black"/>
<path d="M373.667 557.307C273.489 557.307 191.987 475.224 191.987 374.333C191.987 325.5 210.861 279.584 245.132 245.027C254.814 235.272 270.559 235.193 280.335 244.886C290.09 254.568 290.158 270.323 280.475 280.089C255.511 305.25 241.767 338.729 241.767 374.334C241.767 447.782 300.934 507.522 373.669 507.522C408.862 507.522 441.955 493.694 466.862 468.59C476.534 458.819 492.299 458.767 502.055 468.439C511.821 478.121 511.889 493.876 502.206 503.632C467.884 538.247 422.237 557.304 373.67 557.304L373.667 557.307Z" fill="black"/>
<path d="M708.933 613.96C703.913 613.96 698.834 612.444 694.439 609.288C683.272 601.273 680.725 585.72 688.741 574.553C694.282 566.829 697.22 557.679 697.22 548.08V227.107C697.22 202.257 677.261 182.039 652.725 182.039H614.96C581.919 182.039 551.725 163.82 536.179 134.487L524.772 112.992C515.022 94.6068 496.174 83.1895 475.548 83.1895H271.775C255.53 83.1895 240.124 90.3249 229.504 102.763C220.577 113.216 204.879 114.461 194.422 105.534C183.969 96.6065 182.724 80.9029 191.651 70.4509C211.734 46.9149 240.948 33.4149 271.787 33.4149H475.574C514.667 33.4149 550.38 54.9776 568.767 89.6803L580.173 111.175C587.069 124.185 600.397 132.263 614.976 132.263H652.741C704.705 132.263 747.001 174.815 747.001 227.107V548.08C747.001 568.159 740.835 587.346 729.179 603.58C724.319 610.351 716.689 613.961 708.939 613.961L708.933 613.96Z" fill="black"/>
<path d="M527.6 429.56C526.043 429.56 524.465 429.404 522.881 429.102C509.381 426.503 500.548 413.456 503.136 399.956C504.756 391.545 505.573 382.915 505.573 374.32C505.573 300.883 446.396 241.132 373.672 241.132C364.787 241.132 355.917 242.018 347.323 243.789C333.859 246.559 320.708 237.867 317.948 224.398C315.188 210.925 323.87 197.783 337.339 195.023C349.219 192.591 361.437 191.357 373.677 191.357C473.855 191.357 555.357 273.43 555.357 374.33C555.357 386.08 554.238 397.866 552.029 409.366C549.722 421.277 539.295 429.554 527.597 429.563L527.6 429.56Z" fill="black"/>
</g>
<defs>
<clipPath id="clip0_102_2">
<rect width="748" height="748" fill="white"/>
</clipPath>
</defs>
</svg>
